<svg xmlns="http://www.w3.org/2000/svg" version="1.1" xmlns:xlink="http://www.w3.org/1999/xlink" xmlns:svgjs="http://svgjs.dev/svgjs" width="2000" height="2000" viewBox="0 0 2000 2000"><g transform="matrix(1,0,0,1,-0.28443113772425477,-0.28443113772459583)"><svg viewBox="0 0 334 334" data-background-color="#ffffff" preserveAspectRatio="xMidYMid meet" height="2000" width="2000" xmlns="http://www.w3.org/2000/svg" xmlns:xlink="http://www.w3.org/1999/xlink"><g id="tight-bounds" transform="matrix(1,0,0,1,0.04749999999998522,0.04750000000001364)"><svg viewBox="0 0 333.90454557049503 333.90454557049503" height="333.90454557049503" width="333.90454557049503"><rect width="333.905" height="333.905" fill="url(#1c245967-8cb6-4001-969d-0e0259187b1f)" mask="url(#801ccf8b-b485-40d9-b772-f47635c20195)" data-fill-palette-color="tertiary"></rect><g><svg></svg></g><g><svg viewBox="0 0 333.90454557049503 333.90454557049503" height="333.90454557049503" width="333.90454557049503"><g><path d="M0 166.952c0-92.205 74.747-166.952 166.952-166.952 92.205 0 166.952 74.747 166.953 166.952 0 92.205-74.747 166.952-166.953 166.953-92.205 0-166.952-74.747-166.952-166.953zM166.952 316.63c82.665 0 149.677-67.013 149.678-149.678 0-82.665-67.013-149.677-149.678-149.677-82.665 0-149.677 67.013-149.677 149.677 0 82.665 67.013 149.677 149.677 149.678z" data-fill-palette-color="tertiary" fill="url(#1c245967-8cb6-4001-969d-0e0259187b1f)" stroke="transparent"></path><ellipse rx="160.27418187383762" ry="160.27418187383762" cx="166.95227278524752" cy="166.95227278524752" fill="url(#1c245967-8cb6-4001-969d-0e0259187b1f)" stroke="transparent" stroke-width="0" fill-opacity="1" data-fill-palette-color="tertiary"></ellipse></g><g transform="matrix(1,0,0,1,119.66631302854381,71.17305217166896)"><svg viewBox="0 0 94.5719195134074 191.55844122715712" height="191.55844122715712" width="94.5719195134074"><g><svg viewBox="0 0 94.5719195134074 191.55844122715712" height="191.55844122715712" width="94.5719195134074"><g><svg viewBox="0 0 94.5719195134074 191.55844122715712" height="191.55844122715712" width="94.5719195134074"><g id="textblocktransform"><svg viewBox="0 0 94.5719195134074 191.55844122715712" height="191.55844122715712" width="94.5719195134074" id="textblock"><g><svg viewBox="0 0 94.5719195134074 191.55844122715712" height="191.55844122715712" width="94.5719195134074"><g transform="matrix(1,0,0,1,0,0)"><svg width="94.5719195134074" viewBox="0.4 -23.3 11.749999999999998 23.8" height="191.55844122715712" data-palette-color="#ffffff"><path d="M10.35-18.9L10.35-18.9Q9.6-18.9 8.8-19.53 8-20.15 8-21.05L8-21.05Q8-21.45 8.45-21.9 8.9-22.35 9.2-22.6L9.2-22.6 9.9-23.15Q10-23.25 10.23-23.28 10.45-23.3 10.6-23.3L10.6-23.3Q11.25-23.3 11.7-22.68 12.15-22.05 12.15-21.6L12.15-21.6Q12.15-21.2 11.98-20.55 11.8-19.9 11.43-19.4 11.05-18.9 10.35-18.9ZM10.85 0.4L10.85 0.4Q10.85 0.4 10.55 0.3L10.55 0.3Q10.45 0.3 10.3 0.25 10.15 0.2 10 0.15L10 0.15Q9.65 0.05 9.35-0.03 9.05-0.1 8.95-0.1L8.95-0.1Q8.75-0.1 8.45 0L8.45 0Q8.15 0.1 8.05 0.1L8.05 0.1Q8 0.1 7.88 0.05 7.75 0 7.7 0L7.7 0Q7.55-0.05 7.4-0.1 7.25-0.15 7.05-0.15L7.05-0.15Q6.8-0.25 6.45-0.23 6.1-0.2 5.95-0.2L5.95-0.2 2.9-0.15Q2.75-0.15 2.7-0.2L2.7-0.2Q2.3 0 2 0L2 0 1.85 0Q1.5 0.5 1.15 0.5L1.15 0.5Q0.8 0.5 0.6 0.1 0.4-0.3 0.4-0.8L0.4-0.8Q0.4-1.5 1.1-1.5L1.1-1.5 1.25-1.5Q1.55-1.75 1.95-1.75L1.95-1.75Q2.1-1.75 2.4-1.65L2.4-1.65Q2.7-1.75 2.9-1.75L2.9-1.75Q3.2-1.75 3.43-1.68 3.65-1.6 3.95-1.6L3.95-1.6Q4.2-1.6 4.6-1.8 5-2 5.3-2.2L5.3-2.2 5.45-2.65Q5.1-3.25 5.1-3.7L5.1-3.7Q5.1-4.3 5.8-4.7L5.8-4.7Q5.65-5 5.65-5.25L5.65-5.25Q5.65-5.6 6-5.95L6-5.95Q5.55-6.2 5.55-6.6L5.55-6.6Q5.55-6.85 5.75-7.2L5.75-7.2Q5.85-7.3 5.9-7.4L5.9-7.4Q5.35-7.65 5.35-8.35L5.35-8.35Q5.35-8.95 5.95-9.05L5.95-9.05Q5.95-9.15 5.93-9.2 5.9-9.25 5.9-9.3L5.9-9.3Q5.9-9.6 6.05-9.8 6.2-10 6.4-10.15L6.4-10.15Q6.05-10.55 6.15-11L6.15-11Q5.95-11.2 5.5-11.1L5.5-11.1Q5.45-11.1 5.4-11.08 5.35-11.05 5.25-11.05L5.25-11.05Q4.95-10.95 4.85-10.95L4.85-10.95 4.35-11.05Q4.25-10.95 4.25-10.9L4.25-10.9Q3.7-10.4 3.28-10.3 2.85-10.2 2.85-10.2L2.85-10.2Q2.15-10.2 2.15-10.95L2.15-10.95Q2.15-11.2 2.33-11.43 2.5-11.65 2.85-11.65L2.85-11.65 3-11.65Q3.4-12.35 4.3-12.75 5.2-13.15 6-13.25L6-13.25Q6.25-13.4 6.5-13.55 6.75-13.7 6.95-13.85L6.95-13.85Q7.05-13.9 7.13-14 7.2-14.1 7.25-14.15L7.25-14.15 7.35-14.25Q7.4-14.3 7.4-14.33 7.4-14.35 7.4-14.35L7.4-14.35 7.8-14.6 8.25-14.85Q8.3-14.85 8.5-15.05L8.5-15.05Q8.65-15.2 8.93-15.45 9.2-15.7 9.4-15.65L9.4-15.65Q9.9-15.65 10.03-15.4 10.15-15.15 10.15-14.75L10.15-14.75Q10.2-14.4 10.15-14.3L10.15-14.3Q10.1-14.25 10.03-14.08 9.95-13.9 9.85-13.5L9.85-13.5Q9.65-12.85 9.47-12.08 9.3-11.3 9.1-10.55L9.1-10.55Q9.05-10.35 9.1-10.13 9.15-9.9 9.1-9.65L9.1-9.65Q9-9.15 8.9-8.68 8.8-8.2 8.75-7.7L8.75-7.7Q8.7-7.1 8.68-6.23 8.65-5.35 8.65-4.67 8.65-4 8.65-3.85L8.65-3.85Q8.65-3.7 8.72-3.2 8.8-2.7 8.9-2.35L8.9-2.35Q9.2-1.65 9.95-1.1L9.95-1.1Q10.05-1.05 10.2-1 10.35-0.95 10.45-0.9L10.45-0.9 11.05-0.75Q11.25-0.7 11.43-0.6 11.6-0.5 11.6-0.35L11.6-0.35 11.6-0.3Q11.6-0.05 11.35 0.18 11.1 0.4 10.85 0.4Z" opacity="1" transform="matrix(1,0,0,1,0,0)" fill="#ffffff" class="wordmark-text-0" data-fill-palette-color="quaternary" id="text-0"></path></svg></g></svg></g></svg></g></svg></g><g></g></svg></g></svg></g></svg></g><defs></defs><mask id="801ccf8b-b485-40d9-b772-f47635c20195"><g id="SvgjsG1960"><svg viewBox="0 0 333.90454557049503 333.90454557049503" height="333.90454557049503" width="333.90454557049503"><g><svg></svg></g><g><svg viewBox="0 0 333.90454557049503 333.90454557049503" height="333.90454557049503" width="333.90454557049503"><g><path d="M0 166.952c0-92.205 74.747-166.952 166.952-166.952 92.205 0 166.952 74.747 166.953 166.952 0 92.205-74.747 166.952-166.953 166.953-92.205 0-166.952-74.747-166.952-166.953zM166.952 316.63c82.665 0 149.677-67.013 149.678-149.678 0-82.665-67.013-149.677-149.678-149.677-82.665 0-149.677 67.013-149.677 149.677 0 82.665 67.013 149.677 149.677 149.678z" fill="white" stroke="transparent"></path><ellipse rx="160.27418187383762" ry="160.27418187383762" cx="166.95227278524752" cy="166.95227278524752" fill="white" stroke="transparent" stroke-width="0" fill-opacity="1"></ellipse></g><g transform="matrix(1,0,0,1,119.66631302854381,71.17305217166896)"><svg viewBox="0 0 94.5719195134074 191.55844122715712" height="191.55844122715712" width="94.5719195134074"><g><svg viewBox="0 0 94.5719195134074 191.55844122715712" height="191.55844122715712" width="94.5719195134074"><g><svg viewBox="0 0 94.5719195134074 191.55844122715712" height="191.55844122715712" width="94.5719195134074"><g id="SvgjsG1959"><svg viewBox="0 0 94.5719195134074 191.55844122715712" height="191.55844122715712" width="94.5719195134074" id="SvgjsSvg1958"><g><svg viewBox="0 0 94.5719195134074 191.55844122715712" height="191.55844122715712" width="94.5719195134074"><g transform="matrix(1,0,0,1,0,0)"><svg width="94.5719195134074" viewBox="0.4 -23.3 11.749999999999998 23.8" height="191.55844122715712" data-palette-color="#ffffff"><path d="M10.35-18.9L10.35-18.9Q9.6-18.9 8.8-19.53 8-20.15 8-21.05L8-21.05Q8-21.45 8.45-21.9 8.9-22.35 9.2-22.6L9.2-22.6 9.9-23.15Q10-23.25 10.23-23.28 10.45-23.3 10.6-23.3L10.6-23.3Q11.25-23.3 11.7-22.68 12.15-22.05 12.15-21.6L12.15-21.6Q12.15-21.2 11.98-20.55 11.8-19.9 11.43-19.4 11.05-18.9 10.35-18.9ZM10.85 0.4L10.85 0.4Q10.85 0.4 10.55 0.3L10.55 0.3Q10.45 0.3 10.3 0.25 10.15 0.2 10 0.15L10 0.15Q9.65 0.05 9.35-0.03 9.05-0.1 8.95-0.1L8.95-0.1Q8.75-0.1 8.45 0L8.45 0Q8.15 0.1 8.05 0.1L8.05 0.1Q8 0.1 7.88 0.05 7.75 0 7.7 0L7.7 0Q7.55-0.05 7.4-0.1 7.25-0.15 7.05-0.15L7.05-0.15Q6.8-0.25 6.45-0.23 6.1-0.2 5.95-0.2L5.95-0.2 2.9-0.15Q2.75-0.15 2.7-0.2L2.7-0.2Q2.3 0 2 0L2 0 1.85 0Q1.5 0.5 1.15 0.5L1.15 0.5Q0.8 0.5 0.6 0.1 0.4-0.3 0.4-0.8L0.4-0.8Q0.4-1.5 1.1-1.5L1.1-1.5 1.25-1.5Q1.55-1.75 1.95-1.75L1.95-1.75Q2.1-1.75 2.4-1.65L2.4-1.65Q2.7-1.75 2.9-1.75L2.9-1.75Q3.2-1.75 3.43-1.68 3.65-1.6 3.95-1.6L3.95-1.6Q4.2-1.6 4.6-1.8 5-2 5.3-2.2L5.3-2.2 5.45-2.65Q5.1-3.25 5.1-3.7L5.1-3.7Q5.1-4.3 5.8-4.7L5.8-4.7Q5.65-5 5.65-5.25L5.65-5.25Q5.65-5.6 6-5.95L6-5.95Q5.55-6.2 5.55-6.6L5.55-6.6Q5.55-6.85 5.75-7.2L5.75-7.2Q5.85-7.3 5.9-7.4L5.9-7.4Q5.35-7.65 5.35-8.35L5.35-8.35Q5.35-8.95 5.95-9.05L5.95-9.05Q5.95-9.15 5.93-9.2 5.9-9.25 5.9-9.3L5.9-9.3Q5.9-9.6 6.05-9.8 6.2-10 6.4-10.15L6.4-10.15Q6.05-10.55 6.15-11L6.15-11Q5.95-11.2 5.5-11.1L5.5-11.1Q5.45-11.1 5.4-11.08 5.35-11.05 5.25-11.05L5.25-11.05Q4.95-10.95 4.85-10.95L4.85-10.95 4.35-11.05Q4.25-10.95 4.25-10.9L4.25-10.9Q3.7-10.4 3.28-10.3 2.85-10.2 2.85-10.2L2.85-10.2Q2.15-10.2 2.15-10.95L2.15-10.95Q2.15-11.2 2.33-11.43 2.5-11.65 2.85-11.65L2.85-11.65 3-11.65Q3.4-12.35 4.3-12.75 5.2-13.15 6-13.25L6-13.25Q6.25-13.4 6.5-13.55 6.75-13.7 6.95-13.85L6.95-13.85Q7.05-13.9 7.13-14 7.2-14.1 7.25-14.15L7.25-14.15 7.35-14.25Q7.4-14.3 7.4-14.33 7.4-14.35 7.4-14.35L7.4-14.35 7.8-14.6 8.25-14.85Q8.3-14.85 8.5-15.05L8.5-15.05Q8.65-15.2 8.93-15.45 9.2-15.7 9.4-15.65L9.4-15.65Q9.9-15.65 10.03-15.4 10.15-15.15 10.15-14.75L10.15-14.75Q10.2-14.4 10.15-14.3L10.15-14.3Q10.1-14.25 10.03-14.08 9.95-13.9 9.85-13.5L9.85-13.5Q9.65-12.85 9.47-12.08 9.3-11.3 9.1-10.55L9.1-10.55Q9.05-10.35 9.1-10.13 9.15-9.9 9.1-9.65L9.1-9.65Q9-9.15 8.9-8.68 8.8-8.2 8.75-7.7L8.75-7.7Q8.7-7.1 8.68-6.23 8.65-5.35 8.65-4.67 8.65-4 8.65-3.85L8.65-3.85Q8.65-3.7 8.72-3.2 8.8-2.7 8.9-2.35L8.9-2.35Q9.2-1.65 9.95-1.1L9.95-1.1Q10.05-1.05 10.2-1 10.35-0.95 10.45-0.9L10.45-0.9 11.05-0.75Q11.25-0.7 11.43-0.6 11.6-0.5 11.6-0.35L11.6-0.35 11.6-0.3Q11.6-0.05 11.35 0.18 11.1 0.4 10.85 0.4Z" opacity="1" transform="matrix(1,0,0,1,0,0)" fill="black" class="wordmark-text-0" id="SvgjsPath1957"></path></svg></g></svg></g></svg></g></svg></g><g></g></svg></g></svg></g></svg></g><defs><mask></mask></defs></svg><rect width="333.90454557049503" height="333.90454557049503" fill="black" stroke="none" visibility="hidden"></rect></g></mask><linearGradient x1="0" x2="1" y1="0.578" y2="0.595" id="1c245967-8cb6-4001-969d-0e0259187b1f"><stop stop-color="#6ee2f5" offset="0"></stop><stop stop-color="#6454f0" offset="1"></stop></linearGradient></svg><rect width="333.90454557049503" height="333.90454557049503" fill="none" stroke="none" visibility="hidden"></rect></g></svg></g></svg>