<svg xmlns="http://www.w3.org/2000/svg" version="1.1" xmlns:xlink="http://www.w3.org/1999/xlink" xmlns:svgjs="http://svgjs.dev/svgjs" width="2000" height="1999" viewBox="0 0 2000 1999"><g transform="matrix(1,0,0,1,-0.431486880466764,-0.4312711370263287)"><svg viewBox="0 0 343 343" data-background-color="#000000" preserveAspectRatio="xMidYMid meet" height="1999" width="2000" xmlns="http://www.w3.org/2000/svg" xmlns:xlink="http://www.w3.org/1999/xlink"><g id="tight-bounds" transform="matrix(1,0,0,1,0.0740000000000407,0.07400000000001228)"><svg viewBox="0 0 342.85155851775386 342.85155851775386" height="342.85155851775386" width="342.85155851775386"><rect width="342.852" height="342.852" fill="url(#3d74f595-180e-4944-aed9-5e7829f4c977)" mask="url(#1bdeb627-11cc-496e-b830-99b328d57660)" data-fill-palette-color="tertiary"></rect><g><svg></svg></g><g><svg viewBox="0 0 342.85155851775386 342.85155851775386" height="342.85155851775386" width="342.85155851775386"><g><path d="M0 171.426c0-94.676 76.75-171.426 171.426-171.426 94.676 0 171.426 76.75 171.426 171.426 0 94.676-76.75 171.426-171.426 171.426-94.676 0-171.426-76.75-171.426-171.426zM171.426 335.867c90.818 0 164.441-73.623 164.441-164.441 0-90.818-73.623-164.441-164.441-164.441-90.818 0-164.441 73.623-164.441 164.441 0 90.818 73.623 164.441 164.441 164.441z" data-fill-palette-color="tertiary" fill="url(#3d74f595-180e-4944-aed9-5e7829f4c977)" stroke="transparent"></path><ellipse rx="164.56874808852186" ry="164.56874808852186" cx="171.42577925887693" cy="171.42577925887693" fill="url(#3d74f595-180e-4944-aed9-5e7829f4c977)" stroke="transparent" stroke-width="0" fill-opacity="1" data-fill-palette-color="tertiary"></ellipse></g><g transform="matrix(1,0,0,1,64.84655864529837,75.87473540026247)"><svg viewBox="0 0 213.1584412271571 191.10208771722893" height="191.10208771722893" width="213.1584412271571"><g><svg viewBox="0 0 213.1584412271571 191.10208771722893" height="191.10208771722893" width="213.1584412271571"><g transform="matrix(1,0,0,1,0,113.65010751978366)"><svg viewBox="0 0 213.1584412271571 77.45198019744528" height="77.45198019744528" width="213.1584412271571"><g id="textblocktransform"><svg viewBox="0 0 213.1584412271571 77.45198019744528" height="77.45198019744528" width="213.1584412271571" id="textblock"><g><svg viewBox="0 0 213.1584412271571 77.45198019744528" height="77.45198019744528" width="213.1584412271571"><g transform="matrix(1,0,0,1,0,0)"><svg width="213.1584412271571" viewBox="3.1 -35.1 96.59 35.1" height="77.45198019744528" data-palette-color="#000000"><path d="M11.65-35.1L11.65-6.6 22.85-6.6 22.85 0 3.1 0 3.1-35.1 11.65-35.1ZM26.95-35.1L35.5-35.1 35.5 0 26.95 0 26.95-35.1ZM65.59-35.1L74.65-35.1 62.2 0 51.49 0 39.05-35.1 48.14-35.1 56.84-8.6 65.59-35.1ZM99.69-28.25L86.74-28.25 86.74-21.15 98.19-21.15 98.19-14.55 86.74-14.55 86.74-6.85 99.69-6.85 99.69 0 78.19 0 78.19-35.1 99.69-35.1 99.69-28.25Z" opacity="1" transform="matrix(1,0,0,1,0,0)" fill="#000000" class="wordmark-text-0" data-fill-palette-color="quaternary" id="text-0"></path></svg></g></svg></g></svg></g></svg></g><g transform="matrix(1,0,0,1,40.713262274387006,0)"><svg viewBox="0 0 131.7319166783831 95.36555384269157" height="95.36555384269157" width="131.7319166783831"><g><svg xmlns="http://www.w3.org/2000/svg" xmlns:xlink="http://www.w3.org/1999/xlink" version="1.1" x="0" y="0" viewBox="7.050000000000001 12.086156123669387 34.000000000000014 24.613843876330616" style="enable-background:new 0 0 48 48;" xml:space="preserve" height="95.36555384269157" width="131.7319166783831" class="icon-icon-0" data-fill-palette-color="quaternary" id="icon-0"><g fill="#000000" data-fill-palette-color="quaternary"><g fill="#000000" data-fill-palette-color="quaternary"><path d="M12.7 36.7c0.3 0 0.5-0.1 0.7-0.3 0.4-0.4 0.4-1 0-1.4-5.9-5.9-5.9-15.4 0-21.2 0.4-0.4 0.4-1 0-1.4s-1-0.4-1.4 0C5.4 19 5.4 29.8 12 36.4 12.2 36.6 12.5 36.7 12.7 36.7z" fill="#000000" data-fill-palette-color="quaternary"></path><path d="M34.7 12.4c-0.4 0.4-0.4 1 0 1.4 5.9 5.9 5.9 15.4 0 21.2-0.4 0.4-0.4 1 0 1.4 0.2 0.2 0.5 0.3 0.7 0.3s0.5-0.1 0.7-0.3c6.6-6.6 6.6-17.4 0-24.1C35.7 12 35.1 12 34.7 12.4z" fill="#000000" data-fill-palette-color="quaternary"></path><path d="M17.7 16.6c-0.4-0.4-1-0.4-1.4 0-4.3 4.3-4.3 11.3 0 15.6 0.2 0.2 0.5 0.3 0.7 0.3s0.5-0.1 0.7-0.3c0.4-0.4 0.4-1 0-1.4-3.5-3.5-3.5-9.2 0-12.7C18.1 17.7 18.1 17 17.7 16.6z" fill="#000000" data-fill-palette-color="quaternary"></path><path d="M31.8 16.6c-0.4-0.4-1-0.4-1.4 0s-0.4 1 0 1.4c3.5 3.5 3.5 9.2 0 12.7-0.4 0.4-0.4 1 0 1.4 0.2 0.2 0.5 0.3 0.7 0.3s0.5-0.1 0.7-0.3C36.1 27.9 36.1 20.9 31.8 16.6z" fill="#000000" data-fill-palette-color="quaternary"></path><path d="M29.1 24.4c0-2.8-2.2-5-5-5s-5 2.2-5 5c0 2.8 2.2 5 5 5S29.1 27.2 29.1 24.4zM21.1 24.4c0-1.7 1.3-3 3-3s3 1.3 3 3c0 1.7-1.3 3-3 3S21.1 26.1 21.1 24.4z" fill="#000000" data-fill-palette-color="quaternary"></path></g></g></svg></g></svg></g><g></g></svg></g></svg></g></svg></g><defs></defs><mask id="1bdeb627-11cc-496e-b830-99b328d57660"><g id="SvgjsG1377"><svg viewBox="0 0 342.85155851775386 342.85155851775386" height="342.85155851775386" width="342.85155851775386"><g><svg></svg></g><g><svg viewBox="0 0 342.85155851775386 342.85155851775386" height="342.85155851775386" width="342.85155851775386"><g><path d="M0 171.426c0-94.676 76.75-171.426 171.426-171.426 94.676 0 171.426 76.75 171.426 171.426 0 94.676-76.75 171.426-171.426 171.426-94.676 0-171.426-76.75-171.426-171.426zM171.426 335.867c90.818 0 164.441-73.623 164.441-164.441 0-90.818-73.623-164.441-164.441-164.441-90.818 0-164.441 73.623-164.441 164.441 0 90.818 73.623 164.441 164.441 164.441z" fill="white" stroke="transparent"></path><ellipse rx="164.56874808852186" ry="164.56874808852186" cx="171.42577925887693" cy="171.42577925887693" fill="white" stroke="transparent" stroke-width="0" fill-opacity="1"></ellipse></g><g transform="matrix(1,0,0,1,64.84655864529837,75.87473540026247)"><svg viewBox="0 0 213.1584412271571 191.10208771722893" height="191.10208771722893" width="213.1584412271571"><g><svg viewBox="0 0 213.1584412271571 191.10208771722893" height="191.10208771722893" width="213.1584412271571"><g transform="matrix(1,0,0,1,0,113.65010751978366)"><svg viewBox="0 0 213.1584412271571 77.45198019744528" height="77.45198019744528" width="213.1584412271571"><g id="SvgjsG1376"><svg viewBox="0 0 213.1584412271571 77.45198019744528" height="77.45198019744528" width="213.1584412271571" id="SvgjsSvg1375"><g><svg viewBox="0 0 213.1584412271571 77.45198019744528" height="77.45198019744528" width="213.1584412271571"><g transform="matrix(1,0,0,1,0,0)"><svg width="213.1584412271571" viewBox="3.1 -35.1 96.59 35.1" height="77.45198019744528" data-palette-color="#000000"><path d="M11.65-35.1L11.65-6.6 22.85-6.6 22.85 0 3.1 0 3.1-35.1 11.65-35.1ZM26.95-35.1L35.5-35.1 35.5 0 26.95 0 26.95-35.1ZM65.59-35.1L74.65-35.1 62.2 0 51.49 0 39.05-35.1 48.14-35.1 56.84-8.6 65.59-35.1ZM99.69-28.25L86.74-28.25 86.74-21.15 98.19-21.15 98.19-14.55 86.74-14.55 86.74-6.85 99.69-6.85 99.69 0 78.19 0 78.19-35.1 99.69-35.1 99.69-28.25Z" opacity="1" transform="matrix(1,0,0,1,0,0)" fill="black" class="wordmark-text-0" id="SvgjsPath1374"></path></svg></g></svg></g></svg></g></svg></g><g transform="matrix(1,0,0,1,40.713262274387006,0)"><svg viewBox="0 0 131.7319166783831 95.36555384269157" height="95.36555384269157" width="131.7319166783831"><g><svg xmlns="http://www.w3.org/2000/svg" xmlns:xlink="http://www.w3.org/1999/xlink" version="1.1" x="0" y="0" viewBox="7.050000000000001 12.086156123669387 34.000000000000014 24.613843876330616" style="enable-background:new 0 0 48 48;" xml:space="preserve" height="95.36555384269157" width="131.7319166783831" class="icon-icon-0" data-fill-palette-color="quaternary" id="SvgjsSvg1373"><g fill="black"><g fill="black"><path d="M12.7 36.7c0.3 0 0.5-0.1 0.7-0.3 0.4-0.4 0.4-1 0-1.4-5.9-5.9-5.9-15.4 0-21.2 0.4-0.4 0.4-1 0-1.4s-1-0.4-1.4 0C5.4 19 5.4 29.8 12 36.4 12.2 36.6 12.5 36.7 12.7 36.7z" fill="black"></path><path d="M34.7 12.4c-0.4 0.4-0.4 1 0 1.4 5.9 5.9 5.9 15.4 0 21.2-0.4 0.4-0.4 1 0 1.4 0.2 0.2 0.5 0.3 0.7 0.3s0.5-0.1 0.7-0.3c6.6-6.6 6.6-17.4 0-24.1C35.7 12 35.1 12 34.7 12.4z" fill="black"></path><path d="M17.7 16.6c-0.4-0.4-1-0.4-1.4 0-4.3 4.3-4.3 11.3 0 15.6 0.2 0.2 0.5 0.3 0.7 0.3s0.5-0.1 0.7-0.3c0.4-0.4 0.4-1 0-1.4-3.5-3.5-3.5-9.2 0-12.7C18.1 17.7 18.1 17 17.7 16.6z" fill="black"></path><path d="M31.8 16.6c-0.4-0.4-1-0.4-1.4 0s-0.4 1 0 1.4c3.5 3.5 3.5 9.2 0 12.7-0.4 0.4-0.4 1 0 1.4 0.2 0.2 0.5 0.3 0.7 0.3s0.5-0.1 0.7-0.3C36.1 27.9 36.1 20.9 31.8 16.6z" fill="black"></path><path d="M29.1 24.4c0-2.8-2.2-5-5-5s-5 2.2-5 5c0 2.8 2.2 5 5 5S29.1 27.2 29.1 24.4zM21.1 24.4c0-1.7 1.3-3 3-3s3 1.3 3 3c0 1.7-1.3 3-3 3S21.1 26.1 21.1 24.4z" fill="black"></path></g></g></svg></g></svg></g><g></g></svg></g></svg></g></svg></g><defs><mask></mask></defs></svg><rect width="342.85155851775386" height="342.85155851775386" fill="black" stroke="none" visibility="hidden"></rect></g></mask><linearGradient x1="0" x2="1" y1="0.578" y2="0.595" id="3d74f595-180e-4944-aed9-5e7829f4c977"><stop stop-color="#6ee2f5" offset="0"></stop><stop stop-color="#6454f0" offset="1"></stop></linearGradient></svg><rect width="342.85155851775386" height="342.85155851775386" fill="none" stroke="none" visibility="hidden"></rect></g></svg></g></svg>